<?xml version="1.0" encoding="utf-8"?>
<!-- Generator: Adobe Illustrator 24.1.2, SVG Export Plug-In . SVG Version: 6.00 Build 0)  -->
<svg version="1.1" xmlns="http://www.w3.org/2000/svg" xmlns:xlink="http://www.w3.org/1999/xlink" x="0px" y="0px"
	 viewBox="0 0 50.5 39" style="enable-background:new 0 0 50.5 39;" xml:space="preserve">
<g id="Layer_2">
</g>
<g id="Layer_1">
	<g>
		<path d="M5248.4,2369.6v-2c0-2.8-5-4-9.7-4s-9.7,1.3-9.7,4v2c0,1.8,0.7,3.6,2,4.9l5,4.9c0.3,0.3,0.4,0.6,0.4,1v6.4
			c0,0.4,0.2,0.7,0.6,0.8l2.9,0.9c0.5,0.1,1-0.2,1-0.8v-7.2c0-0.4,0.2-0.7,0.4-1l5.1-5C5247.6,2373.1,5248.4,2371.3,5248.4,2369.6z
			 M5238.6,2369.4c-4.8,0-7.4-1.3-7.5-1.8l0,0c0.1-0.5,2.7-1.8,7.5-1.8s7.3,1.3,7.5,1.8C5246,2368.1,5243.5,2369.4,5238.6,2369.4z"
			/>
		<path d="M5243.6,2379.8c-0.6,0-1,0.4-1,1s0.4,1,1,1h4.3c0.6,0,1-0.4,1-1s-0.4-1-1-1H5243.6z"/>
		<path d="M5248,2383.1h-4.3c-0.6,0-1,0.4-1,1s0.4,1,1,1h4.3c0.6,0,1-0.4,1-1C5249,2383.6,5248.5,2383.1,5248,2383.1z"/>
		<path d="M5248,2386.4h-4.3c-0.6,0-1,0.4-1,1s0.4,1,1,1h4.3c0.6,0,1-0.4,1-1C5249,2386.9,5248.5,2386.4,5248,2386.4z"/>
	</g>
	<path d="M49.4,10.5L22.1,38c-1.4,1.4-3.7,1.4-5.1,0l-16-16c-1.4-1.4-1.4-3.7,0-5.1l4.5-4.5c1.4-1.4,3.7-1.4,5.1,0l7.8,7.8
		c0.6,0.6,1.7,0.6,2.3,0L39.8,1c1.4-1.4,3.7-1.4,5.1,0l4.5,4.5C50.8,6.9,50.8,9.1,49.4,10.5z"/>
</g>
</svg>
