<?xml version="1.0" encoding="utf-8"?>
<!-- Generator: Adobe Illustrator 24.1.2, SVG Export Plug-In . SVG Version: 6.00 Build 0)  -->
<svg version="1.1"
	 id="Layer_1" xmlns:cc="http://creativecommons.org/ns#" xmlns:dc="http://purl.org/dc/elements/1.1/" xmlns:inkscape="http://www.inkscape.org/namespaces/inkscape" xmlns:rdf="http://www.w3.org/1999/02/22-rdf-syntax-ns#" xmlns:sodipodi="http://sodipodi.sourceforge.net/DTD/sodipodi-0.dtd" xmlns:svg="http://www.w3.org/2000/svg"
	 xmlns="http://www.w3.org/2000/svg" xmlns:xlink="http://www.w3.org/1999/xlink" x="0px" y="0px" viewBox="0 0 84 74"
	 style="enable-background:new 0 0 84 74;" xml:space="preserve">
<g transform="translate(0,-952.36218)">
	<path d="M34.9,952.4c-9.3,0-17,7.6-17,17c0,5,2.2,9.5,5.6,12.6C10,985.8,0,996.3,0,1009.3c0,1.7,1.3,3,3,3h47.9c1.7,0,3-1.3,3-3
		c0-1.7-1.3-3-3-3c0,0-0.1,0-0.1,0H6.4c1.8-11,13.6-20,28.6-20c10.4,0,19.6,4.6,24.6,10.9c1,1.3,2.9,1.5,4.2,0.5
		c1.3-1,1.5-2.9,0.5-4.2c-4.3-5.3-10.6-9.4-17.9-11.5c3.4-3.1,5.6-7.6,5.6-12.6C51.9,960,44.3,952.4,34.9,952.4L34.9,952.4z
		 M34.9,958.4c6.1,0,11,4.9,11,11s-4.9,11-11,11s-11-4.9-11-11S28.8,958.4,34.9,958.4z M67.9,998.3c-3.1,0-6.1,1.2-8.5,3.5
		c-4.7,4.7-4.7,12.3,0,16.9c3.9,3.9,10,4.5,14.5,1.8l4.8,4.8c1.1,1.2,3,1.4,4.2,0.3c1.2-1.1,1.4-3,0.3-4.2c-0.1-0.1-0.2-0.2-0.3-0.3
		l-4.8-4.8c2.7-4.6,2.1-10.6-1.8-14.5C74,999.5,71,998.3,67.9,998.3z M67.9,1004.2c1.5,0,3.1,0.6,4.2,1.8c2.4,2.4,2.4,6.1,0,8.5
		c-2.4,2.4-6.1,2.4-8.5,0c-2.4-2.4-2.4-6.1,0-8.5C64.8,1004.8,66.4,1004.2,67.9,1004.2z"/>
</g>
</svg>
