<?xml version="1.0" encoding="utf-8"?>
<!-- Generator: Adobe Illustrator 24.1.2, SVG Export Plug-In . SVG Version: 6.00 Build 0)  -->
<svg version="1.1"
	 id="Layer_1" xmlns:cc="http://creativecommons.org/ns#" xmlns:dc="http://purl.org/dc/elements/1.1/" xmlns:inkscape="http://www.inkscape.org/namespaces/inkscape" xmlns:rdf="http://www.w3.org/1999/02/22-rdf-syntax-ns#" xmlns:sodipodi="http://sodipodi.sourceforge.net/DTD/sodipodi-0.dtd" xmlns:svg="http://www.w3.org/2000/svg"
	 xmlns="http://www.w3.org/2000/svg" xmlns:xlink="http://www.w3.org/1999/xlink" x="0px" y="0px" viewBox="0 0 74.7 74.7"
	 style="enable-background:new 0 0 74.7 74.7;" xml:space="preserve">
<g transform="translate(0,-952.36218)">
	<g transform="translate(12.618111,964.98029)">
		<path d="M-7.1,56.6c-7.4-7.4-7.4-19.5,0-26.9L29.7-7.1c7.4-7.4,19.5-7.4,26.9,0s7.4,19.5,0,26.9L19.8,56.6
			C12.4,64,0.3,64-7.1,56.6z M17.7,13.5l18.4,18.4l16.3-16.3c5.1-5.1,5.1-13.3,0-18.4s-13.3-5.1-18.4,0L17.7,13.5z M41.7,19.1
			c-1.1-1.1-1.1-3.2,0.1-4.3l2.8-2.8c1.5-1.5,2.3-3,2.5-4.1c0.2-1.1,0.1-1.8-1.1-3c-1.1-1.1-1.1-3.2,0-4.3c1.1-1.1,3.2-1.1,4.3,0
			c2.3,2.3,3.3,5.5,2.8,8.3c-0.5,2.8-2.1,5.2-4.2,7.2l-2.8,2.8C44.8,20.3,42.8,20.3,41.7,19.1z"/>
	</g>
</g>
</svg>
