<?xml version="1.0" encoding="utf-8"?>
<!-- Generator: Adobe Illustrator 24.1.2, SVG Export Plug-In . SVG Version: 6.00 Build 0)  -->
<svg version="1.1" id="Layer_1" xmlns="http://www.w3.org/2000/svg" xmlns:xlink="http://www.w3.org/1999/xlink" x="0px" y="0px"
	 viewBox="0 0 27.5 30" style="enable-background:new 0 0 27.5 30;" xml:space="preserve">
<g>
	<path d="M22,14.4c-1-0.5-2.3-0.4-3.2,0.2c-2.9,1.9-7,1.9-10,0c-1-0.6-2.2-0.7-3.2-0.2C2.2,16,0,19.4,0,23.1v0.7
		C0,27.2,2.8,30,6.2,30h15.2c3.4,0,6.2-2.8,6.2-6.2v-0.7C27.5,19.4,25.3,16,22,14.4z M24.6,23.8c0,1.8-1.5,3.2-3.2,3.2H6.2
		c-1.8,0-3.2-1.5-3.2-3.2v-0.7c0-2.6,1.5-5,3.9-6.1c0.1,0,0.1,0,0.2,0c0.1,0,0.2,0,0.2,0.1c1.9,1.3,4.2,2,6.6,2c2.4,0,4.6-0.7,6.6-2
		c0.1-0.1,0.3-0.1,0.4,0c2.3,1.1,3.9,3.5,3.9,6.1C24.6,23.1,24.6,23.8,24.6,23.8z"/>
	<path d="M13.7,14.1c3.9,0,7.1-3.2,7.1-7.1S17.6,0,13.7,0S6.7,3.2,6.7,7.1S9.9,14.1,13.7,14.1z M13.7,2.9c2.3,0,4.1,1.9,4.1,4.1
		s-1.9,4.1-4.1,4.1S9.6,9.3,9.6,7.1S11.5,2.9,13.7,2.9z"/>
</g>
</svg>
