<?xml version="1.0" encoding="utf-8"?>
<!-- Generator: Adobe Illustrator 24.1.2, SVG Export Plug-In . SVG Version: 6.00 Build 0)  -->
<svg version="1.1" id="Layer_1" xmlns="http://www.w3.org/2000/svg" xmlns:xlink="http://www.w3.org/1999/xlink" x="0px" y="0px"
	 viewBox="0 0 16.7 16.7" style="enable-background:new 0 0 16.7 16.7;" xml:space="preserve">
<path d="M16.2,13.5L11,8.3l5.2-5.2c0.6-0.6,0.6-1.6,0-2.2l-0.5-0.5C15.4,0.2,15,0,14.6,0c0,0,0,0,0,0c-0.4,0-0.8,0.2-1.1,0.4
	L8.3,5.7L3.1,0.5c-0.6-0.6-1.6-0.6-2.2,0L0.5,0.9C0.2,1.2,0,1.6,0,2c0,0.4,0.2,0.8,0.4,1.1l5.2,5.2l-5.2,5.2c-0.6,0.6-0.6,1.6,0,2.2
	l0.5,0.5c0.3,0.3,0.7,0.5,1.1,0.5c0.4,0,0.8-0.2,1.1-0.5L8.3,11l5.2,5.2c0.3,0.3,0.7,0.5,1.1,0.5c0.4,0,0.8-0.1,1.1-0.4l0.5-0.5
	c0.3-0.3,0.5-0.7,0.5-1.1C16.7,14.2,16.5,13.8,16.2,13.5L16.2,13.5z"/>
</svg>
