<?xml version="1.0" encoding="utf-8"?>
<!-- Generator: Adobe Illustrator 24.1.2, SVG Export Plug-In . SVG Version: 6.00 Build 0)  -->
<svg version="1.1" id="Layer_1" xmlns="http://www.w3.org/2000/svg" xmlns:xlink="http://www.w3.org/1999/xlink" x="0px" y="0px"
	 viewBox="0 0 80 56" style="enable-background:new 0 0 80 56;" xml:space="preserve">
<g>
	<path d="M40,33c2.1,0,4.2-0.8,5.7-2.3L75.5,0.8C74.4,0.3,73.2,0,72,0H8C6.8,0,5.6,0.3,4.5,0.8l29.9,29.9C35.8,32.2,37.9,33,40,33z"
		/>
	<path d="M48.5,33.5c-4.7,4.7-12.3,4.7-17,0c0,0,0,0,0,0L1.4,3.4C0.5,4.8,0,6.4,0,8v40c0,4.4,3.6,8,8,8h64c4.4,0,8-3.6,8-8V8
		c0-1.6-0.5-3.2-1.4-4.5L48.5,33.5z"/>
</g>
</svg>
