<?xml version="1.0" encoding="utf-8"?>
<!-- Generator: Adobe Illustrator 24.1.2, SVG Export Plug-In . SVG Version: 6.00 Build 0)  -->
<svg version="1.1"
	 id="Layer_1" xmlns:cc="http://creativecommons.org/ns#" xmlns:dc="http://purl.org/dc/elements/1.1/" xmlns:inkscape="http://www.inkscape.org/namespaces/inkscape" xmlns:rdf="http://www.w3.org/1999/02/22-rdf-syntax-ns#" xmlns:sodipodi="http://sodipodi.sourceforge.net/DTD/sodipodi-0.dtd" xmlns:svg="http://www.w3.org/2000/svg"
	 xmlns="http://www.w3.org/2000/svg" xmlns:xlink="http://www.w3.org/1999/xlink" x="0px" y="0px" viewBox="0 0 11.2 16.7"
	 style="enable-background:new 0 0 11.2 16.7;" xml:space="preserve">
<g transform="translate(0,-11.249983)">
	<path d="M5.6,11.2c-3.1,0-5.6,2.5-5.6,5.6c0,2.7,1.9,4.9,4.5,5.5c0,0.4,0,0.8,0,1.2H3.3c-0.6,0-1.1,0.5-1.1,1.1
		c0,0.6,0.5,1.1,1.1,1.1h1.1v1.1C4.5,27.5,5,28,5.6,28c0.6,0,1.1-0.5,1.1-1.1v-1.1h1.1c0.6,0,1.1-0.5,1.1-1.1c0-0.6-0.5-1.1-1.1-1.1
		H6.7c0-0.4,0-0.8,0-1.2c2.5-0.5,4.5-2.8,4.5-5.5C11.2,13.8,8.6,11.2,5.6,11.2L5.6,11.2z M5.6,13.5c1.9,0,3.3,1.5,3.3,3.3
		s-1.5,3.3-3.3,3.3c-1.9,0-3.3-1.5-3.3-3.3S3.7,13.5,5.6,13.5z"/>
</g>
</svg>
