<?xml version="1.0" encoding="utf-8"?>
<!-- Generator: Adobe Illustrator 24.1.2, SVG Export Plug-In . SVG Version: 6.00 Build 0)  -->
<svg version="1.1" id="Layer_1" xmlns="http://www.w3.org/2000/svg" xmlns:xlink="http://www.w3.org/1999/xlink" x="0px" y="0px"
	 viewBox="0 0 22.5 28" style="enable-background:new 0 0 22.5 28;" xml:space="preserve">
<style type="text/css">
	.st0{fill-rule:evenodd;clip-rule:evenodd;}
</style>
<g>
	<path class="st0" d="M20,3.2L20,3.2c-0.3-1.2-1.6-2-2.9-1.6c-0.1,0-0.3,0.1-0.4,0.2c-1.3,0.6-3.6,0.9-6.4-0.7
		C7.7-0.7,4.1-0.2,2,2.2L1.6,0.6C1.5,0.2,1-0.1,0.6,0.1C0.2,0.2-0.1,0.6,0,1l0,0l7.1,26.4c0.1,0.4,0.6,0.7,1,0.6
		c0.4-0.1,0.7-0.6,0.6-1l0,0L5.8,16.5c1.4-2.4,4.5-3.1,6.9-1.7c0,0,0.1,0,0.1,0.1c4,2.3,7.1,1.3,8.6,0.5c0,0,0,0,0.1,0
		c0.8-0.5,1.2-1.5,1-2.5C22,10.7,20.7,5.9,20,3.2z"/>
</g>
</svg>
