<?xml version="1.0" encoding="utf-8"?>
<!-- Generator: Adobe Illustrator 24.1.2, SVG Export Plug-In . SVG Version: 6.00 Build 0)  -->
<svg version="1.1"
	 id="Layer_1" xmlns:cc="http://creativecommons.org/ns#" xmlns:dc="http://purl.org/dc/elements/1.1/" xmlns:inkscape="http://www.inkscape.org/namespaces/inkscape" xmlns:rdf="http://www.w3.org/1999/02/22-rdf-syntax-ns#" xmlns:sodipodi="http://sodipodi.sourceforge.net/DTD/sodipodi-0.dtd" xmlns:svg="http://www.w3.org/2000/svg"
	 xmlns="http://www.w3.org/2000/svg" xmlns:xlink="http://www.w3.org/1999/xlink" x="0px" y="0px" viewBox="0 0 15.6 15.6"
	 style="enable-background:new 0 0 15.6 15.6;" xml:space="preserve">
<g transform="translate(0,-11.249983)">
	<path d="M10,11.2c-0.6,0-1.1,0.5-1.1,1.1c0,0,0,0,0,0c0,0.6,0.5,1.1,1.1,1.1c0,0,0,0,0,0h1.8l-3.2,3.2c-0.9-0.6-1.9-0.9-3.1-0.9
		c-3.1,0-5.6,2.5-5.6,5.6s2.5,5.6,5.6,5.6c3.1,0,5.6-2.5,5.6-5.6c0-1.1-0.3-2.2-0.9-3.1l3.1-3.2v1.8c0,0.6,0.5,1.1,1.1,1.1
		c0.6,0,1.1-0.5,1.1-1.1c0,0,0,0,0,0v-4.5c0-0.6-0.5-1.1-1.1-1.1c0,0,0,0,0,0L10,11.2z M5.6,17.9c1.9,0,3.3,1.5,3.3,3.3
		c0,1.9-1.5,3.3-3.3,3.3c-1.9,0-3.3-1.5-3.3-3.3C2.2,19.4,3.7,17.9,5.6,17.9z"/>
</g>
</svg>
