<?xml version="1.0" encoding="utf-8"?>
<!-- Generator: Adobe Illustrator 24.1.2, SVG Export Plug-In . SVG Version: 6.00 Build 0)  -->
<svg version="1.1" id="Layer_1" xmlns="http://www.w3.org/2000/svg" xmlns:xlink="http://www.w3.org/1999/xlink" x="0px" y="0px"
	 viewBox="0 0 54.2 58.2" style="enable-background:new 0 0 54.2 58.2;" xml:space="preserve">
<path d="M43,58.2c6.1,0,11-4.9,11-11s-4.9-11-11-11c-2.9,0-5.7,1.1-7.8,3.2l-13.6-7.6c0.4-1.7,0.4-3.5,0-5.1L35.3,19
	c4.3,4.3,11.4,4.3,15.7,0s4.3-11.4,0-15.7c-4.3-4.3-11.4-4.3-15.7,0C32.5,6,31.4,10,32.3,13.8l-13.6,7.6c-4.3-4.3-11.3-4.3-15.6,0
	s-4.3,11.3,0,15.6c4.3,4.3,11.2,4.3,15.5,0l13.6,7.6c-1.4,5.9,2.2,11.8,8.1,13.3C41.3,58.1,42.1,58.2,43,58.2z M43,42.2
	c2.8,0,5,2.2,5,5s-2.2,5-5,5c-2.8,0-5-2.2-5-5S40.2,42.2,43,42.2z M43,6.2c2.8,0,5,2.2,5,5s-2.2,5-5,5c-2.8,0-5-2.2-5-5
	S40.2,6.2,43,6.2z M11,34.2c-2.8,0-5-2.2-5-5s2.2-5,5-5s5,2.2,5,5S13.8,34.2,11,34.2z"/>
</svg>
