<?xml version="1.0" encoding="utf-8"?>
<!-- Generator: Adobe Illustrator 24.1.2, SVG Export Plug-In . SVG Version: 6.00 Build 0)  -->
<svg version="1.1" id="Layer_1" xmlns="http://www.w3.org/2000/svg" xmlns:xlink="http://www.w3.org/1999/xlink" x="0px" y="0px"
	 viewBox="0 0 74.4 66.2" style="enable-background:new 0 0 74.4 66.2;" xml:space="preserve">
<path d="M41.3,0C30.7,0,20.7,5.1,14.5,13.6l3.2,2.4C23.2,8.5,32,4,41.3,4c16,0,29.1,13,29.1,29.1s-13,29.1-29.1,29.1
	c-14.5,0-26.6-10.7-28.8-24.7l7.3,5.7l2.5-3.2L9.8,30.3L0,42.8l3.2,2.5l5.5-7c2.5,15.8,16.2,27.9,32.7,27.9
	c18.2,0,33.1-14.8,33.1-33.1S59.5,0,41.3,0z"/>
</svg>
